<svg width="800" height="320" viewBox="0 0 800 320" xmlns="http://www.w3.org/2000/svg">
  <defs>
    <linearGradient id="grad_Eli_Electric_Vehicles" x1="0%" y1="0%" x2="100%" y2="100%">
      <stop offset="0%" style="stop-color:#1e293b;stop-opacity:1" />
      <stop offset="100%" style="stop-color:#059669;stop-opacity:1" />
    </linearGradient>
    <filter id="glow" x="-20%" y="-20%" width="140%" height="140%">
      <feGaussianBlur stdDeviation="6" result="blur" />
      <feComposite in="SourceGraphic" in2="blur" operator="over" />
    </filter>
  </defs>

  <!-- Background -->
  <rect width="800" height="320" rx="16" fill="url(#grad_Eli_Electric_Vehicles)" />

  <!-- Decorative Abstract Circles -->
  <circle cx="750" cy="80" r="160" fill="#ffffff" opacity="0.04" />
  <circle cx="50" cy="280" r="120" fill="#ffffff" opacity="0.03" />
  <path d="M-50 160 C100 80 200 240 350 160 C500 80 650 240 850 160" fill="none" stroke="#ffffff" stroke-width="2" opacity="0.04" />

  <!-- Category Badge -->
  <g transform="translate(60, 65)">
    <rect width="260" height="28" rx="14" fill="#ffffff" opacity="0.12" />
    <text x="12" y="18" fill="#ffffff" font-family="'Outfit', 'Inter', sans-serif" font-size="11" font-weight="700" letter-spacing="1" opacity="0.95">AUTOMOTIVE / EV</text>
  </g>

  <!-- Branding Text -->
  <text x="60" y="160" fill="#ffffff" font-family="'Outfit', 'Inter', sans-serif" font-size="52" font-weight="900" letter-spacing="-1.5" filter="url(#glow)">Eli Electric Vehicles</text>
  <text x="60" y="215" fill="#ffffff" font-family="'Outfit', 'Inter', sans-serif" font-size="20" font-weight="500" opacity="0.85">Next-gen personal micro-mobility.</text>

  <!-- Stylized Icon Container -->
  <g transform="translate(640, 90) scale(1.4)">
    <circle cx="45" cy="65" r="40" fill="#ffffff" opacity="0.08" />
    
      <!-- Compact EV car profile / Lightning Bolt -->
      <g fill="none" stroke-linecap="round" stroke-linejoin="round">
        <path d="M15 80 h10 c2 -8 10 -8 12 0 h26 c2 -8 10 -8 12 0 h10 V65 C75 58 60 50 45 50 H25 C20 50 15 58 15 65 Z" stroke="#34d399" stroke-width="4" fill="#34d399" opacity="0.2" />
        <circle cx="31" cy="80" r="7" stroke="#34d399" stroke-width="3" />
        <circle cx="63" cy="80" r="7" stroke="#34d399" stroke-width="3" />
        <!-- Lightning bolt -->
        <path d="M43 35 L35 48 h10 L38 60" stroke="#6ee7b7" stroke-width="3" />
      </g>
    
  </g>
</svg>
