<svg width="800" height="320" viewBox="0 0 800 320" xmlns="http://www.w3.org/2000/svg">
  <defs>
    <linearGradient id="grad_Trade_Algo" x1="0%" y1="0%" x2="100%" y2="100%">
      <stop offset="0%" style="stop-color:#0f172a;stop-opacity:1" />
      <stop offset="100%" style="stop-color:#2563eb;stop-opacity:1" />
    </linearGradient>
    <filter id="glow" x="-20%" y="-20%" width="140%" height="140%">
      <feGaussianBlur stdDeviation="6" result="blur" />
      <feComposite in="SourceGraphic" in2="blur" operator="over" />
    </filter>
  </defs>

  <!-- Background -->
  <rect width="800" height="320" rx="16" fill="url(#grad_Trade_Algo)" />

  <!-- Decorative Abstract Circles -->
  <circle cx="750" cy="80" r="160" fill="#ffffff" opacity="0.04" />
  <circle cx="50" cy="280" r="120" fill="#ffffff" opacity="0.03" />
  <path d="M-50 160 C100 80 200 240 350 160 C500 80 650 240 850 160" fill="none" stroke="#ffffff" stroke-width="2" opacity="0.04" />

  <!-- Category Badge -->
  <g transform="translate(60, 65)">
    <rect width="260" height="28" rx="14" fill="#ffffff" opacity="0.12" />
    <text x="12" y="18" fill="#ffffff" font-family="'Outfit', 'Inter', sans-serif" font-size="11" font-weight="700" letter-spacing="1" opacity="0.95">FINTECH / AI TRADING</text>
  </g>

  <!-- Branding Text -->
  <text x="60" y="160" fill="#ffffff" font-family="'Outfit', 'Inter', sans-serif" font-size="52" font-weight="900" letter-spacing="-1.5" filter="url(#glow)">Trade Algo</text>
  <text x="60" y="215" fill="#ffffff" font-family="'Outfit', 'Inter', sans-serif" font-size="20" font-weight="500" opacity="0.85">AI-driven stock and options trading.</text>

  <!-- Stylized Icon Container -->
  <g transform="translate(640, 90) scale(1.4)">
    <circle cx="45" cy="65" r="40" fill="#ffffff" opacity="0.08" />
    
      <!-- Stock chart line and Sparkles -->
      <g fill="none" stroke-linecap="round" stroke-linejoin="round">
        <path d="M20 85 L40 60 L55 70 L75 35" stroke="#60a5fa" stroke-width="4" />
        <polyline points="65 35 75 35 75 45" stroke="#60a5fa" stroke-width="4" />
        <circle cx="75" cy="35" r="4" fill="#60a5fa" />
        <path d="M20 90 h60" stroke="#334155" stroke-width="2" />
        <circle cx="40" cy="60" r="3" fill="#60a5fa" />
        <circle cx="55" cy="70" r="3" fill="#60a5fa" />
      </g>
    
  </g>
</svg>
