<svg width="800" height="320" viewBox="0 0 800 320" xmlns="http://www.w3.org/2000/svg">
  <defs>
    <linearGradient id="grad_Virtuix" x1="0%" y1="0%" x2="100%" y2="100%">
      <stop offset="0%" style="stop-color:#1e1b4b;stop-opacity:1" />
      <stop offset="100%" style="stop-color:#d946ef;stop-opacity:1" />
    </linearGradient>
    <filter id="glow" x="-20%" y="-20%" width="140%" height="140%">
      <feGaussianBlur stdDeviation="6" result="blur" />
      <feComposite in="SourceGraphic" in2="blur" operator="over" />
    </filter>
  </defs>

  <!-- Background -->
  <rect width="800" height="320" rx="16" fill="url(#grad_Virtuix)" />

  <!-- Decorative Abstract Circles -->
  <circle cx="750" cy="80" r="160" fill="#ffffff" opacity="0.04" />
  <circle cx="50" cy="280" r="120" fill="#ffffff" opacity="0.03" />
  <path d="M-50 160 C100 80 200 240 350 160 C500 80 650 240 850 160" fill="none" stroke="#ffffff" stroke-width="2" opacity="0.04" />

  <!-- Category Badge -->
  <g transform="translate(60, 65)">
    <rect width="260" height="28" rx="14" fill="#ffffff" opacity="0.12" />
    <text x="12" y="18" fill="#ffffff" font-family="'Outfit', 'Inter', sans-serif" font-size="11" font-weight="700" letter-spacing="1" opacity="0.95">GAMING / VR HARDWARE</text>
  </g>

  <!-- Branding Text -->
  <text x="60" y="160" fill="#ffffff" font-family="'Outfit', 'Inter', sans-serif" font-size="52" font-weight="900" letter-spacing="-1.5" filter="url(#glow)">Virtuix</text>
  <text x="60" y="215" fill="#ffffff" font-family="'Outfit', 'Inter', sans-serif" font-size="20" font-weight="500" opacity="0.85">Walk and run freely inside your VR games.</text>

  <!-- Stylized Icon Container -->
  <g transform="translate(640, 90) scale(1.4)">
    <circle cx="45" cy="65" r="40" fill="#ffffff" opacity="0.08" />
    
      <!-- VR Headset / Running Man -->
      <g fill="none" stroke-linecap="round" stroke-linejoin="round">
        <rect x="20" y="55" width="50" height="26" rx="6" stroke="#f472b6" stroke-width="4" fill="#f472b6" opacity="0.2" />
        <path d="M30 68 h30 M20 68 h5 M65 68 h5" stroke="#f472b6" stroke-width="3" />
        <!-- Glowing VR band -->
        <path d="M25 55 C25 45 65 45 65 55" stroke="#f472b6" stroke-width="2" stroke-dasharray="4 2" />
        <circle cx="35" cy="68" r="3" fill="#f472b6" />
        <circle cx="55" cy="68" r="3" fill="#f472b6" />
      </g>
    
  </g>
</svg>
